<?xml version="1.0" encoding="utf-8"?>
<svg version="1.1" xmlns:xlink="http://www.w3.org/1999/xlink" width="45px" height="37px" xmlns="http://www.w3.org/2000/svg">
  <g transform="matrix(1 0 0 1 -290 -21 )">
    <path d="M 11.7658536585366 14.2307692307692  L 4.67560975609756 14.2307692307692  L 18.3512195121951 29.0174278846154  L 11.7658536585366 14.2307692307692  Z M 14.8390243902439 14.2307692307692  L 22.5 31.3966346153846  L 30.1609756097561 14.2307692307692  L 14.8390243902439 14.2307692307692  Z M 4.23658536585366 11.3846153846154  L 11.8317073170732 11.3846153846154  L 16.309756097561 2.84615384615384  L 10.5585365853659 2.84615384615384  L 4.23658536585366 11.3846153846154  Z M 33.2341463414634 14.2307692307692  L 26.6487804878049 29.0174278846154  L 40.3243902439024 14.2307692307692  L 33.2341463414634 14.2307692307692  Z M 19.4926829268293 2.84615384615384  L 15.0146341463415 12  L 29.9853658536585 12  L 25.5073170731707 2.84615384615384  L 19.4926829268293 2.84615384615384  Z M 28.690243902439 2.84615384615384  L 33.1682926829268 11.3846153846154  L 40.7634146341463 11.3846153846154  L 34.4414634146342 2.84615384615384  L 28.690243902439 2.84615384615384  Z M 35.1439024390244 0  C 35.6268292682927 0  36 0.192708333333331  36.2634146341463 0.578125  L 44.6926829268293 11.9627403846154  C 44.8975609756098 12.2295673076923  44.9926829268293 12.5371594551282  44.9780487804878 12.8855168269231  C 44.9634146341463 13.2338741987179  44.8390243902439 13.5340544871795  44.6048780487805 13.7860576923077  L 23.5317073170732 36.5552884615385  C 23.2682926829268 36.8517628205128  22.9243902439024 37  22.5 37  C 22.0756097560976 37  21.7317073170732 36.8517628205128  21.4682926829268 36.5552884615385  L 0.395121951219512 13.7860576923077  C 0.160975609756098 13.5340544871795  0.0365853658536585 13.2338741987179  0.0219512195121951 12.8855168269231  C 0.00731707317073171 12.5371594551282  0.102439024390244 12.2295673076923  0.307317073170732 11.9627403846154  L 8.73658536585366 0.578125  C 9 0.192708333333331  9.37317073170732 0  9.85609756097561 0  L 35.1439024390244 0  Z " fill-rule="nonzero" fill="#000000" stroke="none" transform="matrix(1 0 0 1 290 21 )" />
  </g>
</svg>