<?xml version="1.0" encoding="utf-8"?>
<svg version="1.1" xmlns:xlink="http://www.w3.org/1999/xlink" width="45px" height="49px" xmlns="http://www.w3.org/2000/svg">
  <g transform="matrix(1 0 0 1 -40 -15 )">
    <path d="M 3.46153846153846 37.625  L 3.46153846153846 45.5  L 11.25 45.5  L 11.25 37.625  L 3.46153846153846 37.625  Z M 12.9807692307692 37.625  L 12.9807692307692 45.5  L 21.6346153846154 45.5  L 21.6346153846154 37.625  L 12.9807692307692 37.625  Z M 3.46153846153846 27.125  L 3.46153846153846 35.875  L 11.25 35.875  L 11.25 27.125  L 3.46153846153846 27.125  Z M 12.9807692307692 27.125  L 12.9807692307692 35.875  L 21.6346153846154 35.875  L 21.6346153846154 27.125  L 12.9807692307692 27.125  Z M 3.46153846153846 17.5  L 3.46153846153846 25.375  L 11.25 25.375  L 11.25 17.5  L 3.46153846153846 17.5  Z M 23.3653846153846 37.625  L 23.3653846153846 45.5  L 32.0192307692308 45.5  L 32.0192307692308 37.625  L 23.3653846153846 37.625  Z M 12.9807692307692 17.5  L 12.9807692307692 25.375  L 21.6346153846154 25.375  L 21.6346153846154 17.5  L 12.9807692307692 17.5  Z M 33.75 37.625  L 33.75 45.5  L 41.5384615384615 45.5  L 41.5384615384615 37.625  L 33.75 37.625  Z M 23.3653846153846 27.125  L 23.3653846153846 35.875  L 32.0192307692308 35.875  L 32.0192307692308 27.125  L 23.3653846153846 27.125  Z M 13.5892427884615 12.865234375  C 13.7605168269231 12.6920572916667  13.8461538461538 12.4869791666667  13.8461538461538 12.25  L 13.8461538461538 4.375  C 13.8461538461538 4.13802083333333  13.7605168269231 3.93294270833333  13.5892427884615 3.759765625  C 13.41796875 3.58658854166666  13.2151442307692 3.5  12.9807692307692 3.5  L 11.25 3.5  C 11.015625 3.5  10.8128004807692 3.58658854166666  10.6415264423077 3.759765625  C 10.4702524038462 3.93294270833333  10.3846153846154 4.13802083333333  10.3846153846154 4.375  L 10.3846153846154 12.25  C 10.3846153846154 12.4869791666667  10.4702524038462 12.6920572916667  10.6415264423077 12.865234375  C 10.8128004807692 13.0384114583333  11.015625 13.125  11.25 13.125  L 12.9807692307692 13.125  C 13.2151442307692 13.125  13.41796875 13.0384114583333  13.5892427884615 12.865234375  Z M 33.75 27.125  L 33.75 35.875  L 41.5384615384615 35.875  L 41.5384615384615 27.125  L 33.75 27.125  Z M 23.3653846153846 17.5  L 23.3653846153846 25.375  L 32.0192307692308 25.375  L 32.0192307692308 17.5  L 23.3653846153846 17.5  Z M 33.75 17.5  L 33.75 25.375  L 41.5384615384615 25.375  L 41.5384615384615 17.5  L 33.75 17.5  Z M 34.3584735576923 12.865234375  C 34.5297475961539 12.6920572916667  34.6153846153846 12.4869791666667  34.6153846153846 12.25  L 34.6153846153846 4.375  C 34.6153846153846 4.13802083333333  34.5297475961539 3.93294270833333  34.3584735576923 3.759765625  C 34.1871995192308 3.58658854166666  33.984375 3.5  33.75 3.5  L 32.0192307692308 3.5  C 31.7848557692308 3.5  31.58203125 3.58658854166666  31.4107572115385 3.759765625  C 31.2394831730769 3.93294270833333  31.1538461538462 4.13802083333333  31.1538461538462 4.375  L 31.1538461538462 12.25  C 31.1538461538462 12.4869791666667  31.2394831730769 12.6920572916667  31.4107572115385 12.865234375  C 31.58203125 13.0384114583333  31.7848557692308 13.125  32.0192307692308 13.125  L 33.75 13.125  C 33.984375 13.125  34.1871995192308 13.0384114583333  34.3584735576923 12.865234375  Z M 43.9723557692308 8.0390625  C 44.6574519230769 8.73177083333333  45 9.55208333333333  45 10.5  L 45 45.5  C 45 46.4479166666667  44.6574519230769 47.2682291666667  43.9723557692308 47.9609375  C 43.2872596153846 48.6536458333333  42.4759615384615 49  41.5384615384615 49  L 3.46153846153846 49  C 2.52403846153846 49  1.71274038461538 48.6536458333333  1.02764423076923 47.9609375  C 0.342548076923077 47.2682291666667  0 46.4479166666667  0 45.5  L 0 10.5  C 0 9.55208333333333  0.342548076923077 8.73177083333333  1.02764423076923 8.0390625  C 1.71274038461538 7.34635416666666  2.52403846153846 7  3.46153846153846 7  L 6.92307692307692 7  L 6.92307692307692 4.375  C 6.92307692307692 3.171875  7.34675480769231 2.14192708333333  8.19411057692308 1.28515625  C 9.04146634615385 0.428385416666667  10.0600961538462 0  11.25 0  L 12.9807692307692 0  C 14.1706730769231 0  15.1893028846154 0.428385416666667  16.0366586538462 1.28515625  C 16.8840144230769 2.14192708333333  17.3076923076923 3.171875  17.3076923076923 4.375  L 17.3076923076923 7  L 27.6923076923077 7  L 27.6923076923077 4.375  C 27.6923076923077 3.171875  28.1159855769231 2.14192708333333  28.9633413461538 1.28515625  C 29.8106971153846 0.428385416666667  30.8293269230769 0  32.0192307692308 0  L 33.75 0  C 34.9399038461538 0  35.9585336538462 0.428385416666667  36.8058894230769 1.28515625  C 37.6532451923077 2.14192708333333  38.0769230769231 3.171875  38.0769230769231 4.375  L 38.0769230769231 7  L 41.5384615384615 7  C 42.4759615384615 7  43.2872596153846 7.34635416666666  43.9723557692308 8.0390625  Z " fill-rule="nonzero" fill="#000000" stroke="none" transform="matrix(1 0 0 1 40 15 )" />
  </g>
</svg>