<?xml version="1.0" encoding="utf-8"?>
<svg version="1.1" xmlns:xlink="http://www.w3.org/1999/xlink" width="45px" height="49px" xmlns="http://www.w3.org/2000/svg">
  <g transform="matrix(1 0 0 1 -165 -15 )">
    <path d="M 25.7316706730769 12.578125  C 27.1108774038462 13.9635416666667  27.8004807692308 15.640625  27.8004807692308 17.609375  C 27.8004807692308 19.5598958333333  27.1108774038462 21.2278645833333  25.7316706730769 22.61328125  C 24.3524639423077 23.9986979166667  22.6983173076923 24.69140625  20.7692307692308 24.69140625  C 18.8401442307692 24.69140625  17.1859975961538 23.9986979166667  15.8067908653846 22.61328125  C 14.4275841346154 21.2278645833333  13.7379807692308 19.5598958333333  13.7379807692308 17.609375  C 13.7379807692308 15.640625  14.4275841346154 13.9635416666667  15.8067908653846 12.578125  C 17.1859975961538 11.1927083333333  18.8401442307692 10.5  20.7692307692308 10.5  C 22.6983173076923 10.5  24.3524639423077 11.1927083333333  25.7316706730769 12.578125  Z M 25.6370192307692 24.158203125  C 26.0877403846154 23.8756510416667  26.3762019230769 23.6979166666667  26.5024038461538 23.625  C 27.3317307692308 23.625  28.0754206730769 23.7799479166667  28.7334735576923 24.08984375  C 29.3915264423077 24.3997395833333  29.9323918269231 24.8326822916667  30.3560697115385 25.388671875  C 30.7797475961539 25.9446614583333  31.1358173076923 26.5553385416667  31.4242788461538 27.220703125  C 31.7127403846154 27.8860677083333  31.9290865384615 28.6243489583333  32.0733173076923 29.435546875  C 32.2175480769231 30.2467447916667  32.3212139423077 30.9986979166667  32.3843149038462 31.69140625  C 32.4474158653846 32.3841145833333  32.4789663461538 33.1041666666667  32.4789663461538 33.8515625  C 32.4789663461538 35.0729166666667  32.1228966346154 36.1529947916667  31.4107572115385 37.091796875  C 30.6986177884615 38.0305989583333  29.7475961538462 38.5  28.5576923076923 38  L 12.9807692307692 38  C 11.7908653846154 38.5  10.83984375 38.0305989583333  10.1277043269231 37.091796875  C 9.41556490384616 36.1529947916667  9.05949519230769 35.0729166666667  9.05949519230769 33.8515625  C 9.05949519230769 32.9765625  9.10006009615384 32.1243489583333  9.18118990384616 31.294921875  C 9.26231971153846 30.4654947916667  9.42908653846154 29.5677083333333  9.68149038461539 28.6015625  C 9.93389423076923 27.6354166666667  10.2629206730769 26.8014322916667  10.6685697115385 26.099609375  C 11.07421875 25.3977864583333  11.6421274038462 24.8098958333333  12.3722956730769 24.3359375  C 13.1024639423077 23.8619791666667  13.9453125 23.625  14.9008413461538 23.625  L 15.0360576923077 23.625  C 15.1622596153846 23.6979166666667  15.4507211538462 23.8756510416667  15.9014423076923 24.158203125  C 16.3521634615385 24.4407552083333  16.6721754807692 24.6321614583333  16.8614783653846 24.732421875  C 17.05078125 24.8326822916667  17.3482572115385 24.9876302083333  17.75390625 25.197265625  C 18.1595552884615 25.4069010416667  18.4930889423077 25.552734375  18.7545072115385 25.634765625  C 19.0159254807692 25.716796875  19.3314302884615 25.798828125  19.7010216346154 25.880859375  C 20.0706129807692 25.962890625  20.4266826923077 26.00390625  20.7692307692308 26.00390625  C 21.1117788461539 26.00390625  21.4678485576923 25.962890625  21.8374399038462 25.880859375  C 22.20703125 25.798828125  22.5225360576923 25.716796875  22.7839543269231 25.634765625  C 23.0453725961539 25.552734375  23.37890625 25.4069010416667  23.7845552884615 25.197265625  C 24.1902043269231 24.9876302083333  24.4876802884615 24.8326822916667  24.6769831730769 24.732421875  C 24.8662860576923 24.6321614583333  25.1862980769231 24.4407552083333  25.6370192307692 24.158203125  Z M 45 11.375  L 45 16.625  C 45 16.8619791666667  44.9143629807692 17.0670572916667  44.7430889423077 17.240234375  C 44.5718149038462 17.4134114583333  44.3689903846154 17.5  44.1346153846154 17.5  L 41.5384615384615 17.5  L 41.5384615384615 21  L 44.1346153846154 21  C 44.3689903846154 21  44.5718149038462 21.0865885416667  44.7430889423077 21.259765625  C 44.9143629807692 21.4329427083333  45 21.6380208333333  45 21.875  L 45 27.125  C 45 27.3619791666667  44.9143629807692 27.5670572916667  44.7430889423077 27.740234375  C 44.5718149038462 27.9134114583333  44.3689903846154 28  44.1346153846154 28  L 41.5384615384615 28  L 41.5384615384615 31.5  L 44.1346153846154 31.5  C 44.3689903846154 31.5  44.5718149038462 31.5865885416667  44.7430889423077 31.759765625  C 44.9143629807692 31.9329427083333  45 32.1380208333333  45 32.375  L 45 37.625  C 45 37.8619791666667  44.9143629807692 38.0670572916667  44.7430889423077 38.240234375  C 44.5718149038462 38.4134114583333  44.3689903846154 38.5  44.1346153846154 38.5  L 41.5384615384615 38.5  L 41.5384615384615 44.625  C 41.5384615384615 45.828125  41.1147836538462 46.8580729166667  40.2674278846154 47.71484375  C 39.4200721153846 48.5716145833333  38.4014423076923 49  37.2115384615385 49  L 4.32692307692308 49  C 3.13701923076923 49  2.11838942307692 48.5716145833333  1.27103365384615 47.71484375  C 0.423677884615385 46.8580729166667  0 45.828125  0 44.625  L 0 4.375  C 0 3.171875  0.423677884615385 2.14192708333333  1.27103365384615 1.28515625  C 2.11838942307692 0.428385416666667  3.13701923076923 0  4.32692307692308 0  L 37.2115384615385 0  C 38.4014423076923 0  39.4200721153846 0.428385416666667  40.2674278846154 1.28515625  C 41.1147836538462 2.14192708333333  41.5384615384615 3.171875  41.5384615384615 4.375  L 41.5384615384615 10.5  L 44.1346153846154 10.5  C 44.3689903846154 10.5  44.5718149038462 10.5865885416667  44.7430889423077 10.759765625  C 44.9143629807692 10.9329427083333  45 11.1380208333333  45 11.375  Z M 37.8200120192308 45.240234375  C 37.9912860576923 45.0670572916667  38.0769230769231 44.8619791666667  38 44.625  L 38 4.375  C 38.0769230769231 4.13802083333333  37.9912860576923 3.93294270833333  37.8200120192308 3.759765625  C 37.6487379807692 3.58658854166666  37.4459134615385 3.5  37.2115384615385 4  L 4.32692307692308 4  C 4.09254807692308 3.5  3.88972355769231 3.58658854166666  3.71844951923077 3.759765625  C 3.54717548076923 3.93294270833333  3.46153846153846 4.13802083333333  4 4.375  L 4 44.625  C 3.46153846153846 44.8619791666667  3.54717548076923 45.0670572916667  3.71844951923077 45.240234375  C 3.88972355769231 45.4134114583333  4.09254807692308 45.5  4.32692307692308 45  L 37.2115384615385 45  C 37.4459134615385 45.5  37.6487379807692 45.4134114583333  37.8200120192308 45.240234375  Z " fill-rule="nonzero" fill="#000000" stroke="none" transform="matrix(1 0 0 1 165 15 )" />
  </g>
</svg>